<svg width="40" height="41" viewBox="0 0 40 41" fill="none" xmlns="http://www.w3.org/2000/svg">
<rect y="0.5" width="40" height="40" rx="20" fill="#FF5C00"/>
<path d="M32 27.2443C32 27.5639 31.9432 27.9812 31.8295 28.4961C31.7159 29.011 31.5966 29.4164 31.4716 29.7124C31.233 30.3042 30.5398 30.9316 29.392 31.5945C28.3239 32.1982 27.267 32.5 26.2216 32.5C25.9148 32.5 25.6136 32.4793 25.3182 32.4379C25.0227 32.3964 24.696 32.3224 24.3381 32.2159C23.9801 32.1094 23.7131 32.0236 23.5369 31.9585C23.3608 31.8933 23.0455 31.772 22.5909 31.5945C22.1364 31.4169 21.858 31.3104 21.7557 31.2749C20.642 30.8606 19.6477 30.3693 18.7727 29.8011C17.3295 28.866 15.8295 27.5876 14.2727 25.9659C12.7159 24.3442 11.4886 22.7817 10.5909 21.2784C10.0455 20.367 9.57386 19.3312 9.17614 18.1712C9.14205 18.0646 9.03977 17.7746 8.86932 17.3011C8.69886 16.8277 8.58239 16.4992 8.51989 16.3157C8.45739 16.1322 8.375 15.854 8.27273 15.4812C8.17045 15.1083 8.09943 14.768 8.05966 14.4602C8.01989 14.1525 8 13.8388 8 13.5192C8 12.4302 8.28977 11.3293 8.86932 10.2166C9.50568 9.02107 10.108 8.29901 10.6761 8.05043C10.9602 7.92022 11.3494 7.79593 11.8438 7.67756C12.3381 7.55919 12.7386 7.5 13.0455 7.5C13.2045 7.5 13.3239 7.51776 13.4034 7.55327C13.608 7.62429 13.9091 8.0741 14.3068 8.9027C14.4318 9.1276 14.6023 9.44721 14.8182 9.86151C15.0341 10.2758 15.233 10.6516 15.4148 10.989C15.5966 11.3263 15.7727 11.643 15.9432 11.9389C15.9773 11.9863 16.0767 12.1342 16.2415 12.3828C16.4062 12.6314 16.5284 12.8415 16.608 13.0131C16.6875 13.1848 16.7273 13.3535 16.7273 13.5192C16.7273 13.7559 16.5653 14.0518 16.2415 14.407C15.9176 14.7621 15.5653 15.0876 15.1847 15.3835C14.804 15.6795 14.4517 15.9931 14.1278 16.3246C13.804 16.656 13.642 16.9283 13.642 17.1413C13.642 17.2479 13.6705 17.381 13.7273 17.5408C13.7841 17.7006 13.8324 17.822 13.8722 17.9048C13.9119 17.9877 13.9915 18.1297 14.1108 18.331C14.2301 18.5322 14.2955 18.6446 14.3068 18.6683C15.1705 20.29 16.1591 21.6809 17.2727 22.8409C18.3864 24.0009 19.7216 25.0308 21.2784 25.9304C21.3011 25.9422 21.4091 26.0103 21.6023 26.1346C21.7955 26.2589 21.9318 26.3417 22.0114 26.3832C22.0909 26.4246 22.2074 26.4749 22.3608 26.5341C22.5142 26.5933 22.642 26.6229 22.7443 26.6229C22.9489 26.6229 23.2102 26.4542 23.5284 26.1168C23.8466 25.7795 24.1477 25.4125 24.4318 25.016C24.7159 24.6194 25.0284 24.2525 25.3693 23.9151C25.7102 23.5778 25.9943 23.4091 26.2216 23.4091C26.3807 23.4091 26.5426 23.4505 26.7074 23.5334C26.8722 23.6162 27.0739 23.7435 27.3125 23.9151C27.5511 24.0868 27.6932 24.1903 27.7386 24.2259C28.0227 24.4034 28.3267 24.5869 28.6506 24.7763C28.9744 24.9657 29.3352 25.1728 29.733 25.3977C30.1307 25.6226 30.4375 25.8002 30.6534 25.9304C31.4489 26.3447 31.8807 26.6584 31.9489 26.8714C31.983 26.9543 32 27.0786 32 27.2443Z" fill="#F5F5F5"/>
</svg>
