<svg width="43" height="131" viewBox="0 0 43 131" fill="none" xmlns="http://www.w3.org/2000/svg">
<rect y="96" width="35" height="35" rx="17.5" fill="white"/>
<g clip-path="url(#clip0_149_218)">
<path d="M29.6211 120.507C29.6211 120.814 29.5619 121.215 29.4435 121.709C29.3252 122.203 29.2009 122.593 29.0707 122.877C28.8221 123.445 28.1 124.047 26.9045 124.683C25.7918 125.263 24.6909 125.553 23.6019 125.553C23.2823 125.553 22.9686 125.533 22.6609 125.493C22.3531 125.453 22.0128 125.382 21.6399 125.28C21.267 125.178 20.9889 125.095 20.8054 125.033C20.6219 124.97 20.2934 124.854 19.82 124.683C19.3465 124.513 19.0565 124.411 18.9499 124.377C17.7899 123.979 16.7541 123.507 15.8427 122.962C14.3394 122.064 12.7769 120.837 11.1552 119.28C9.5335 117.723 8.25509 116.223 7.31996 114.78C6.75178 113.905 6.26054 112.911 5.84624 111.797C5.81072 111.695 5.70419 111.416 5.52663 110.962C5.34908 110.507 5.22775 110.192 5.16264 110.016C5.09754 109.84 5.01172 109.573 4.90518 109.215C4.79865 108.857 4.72467 108.53 4.68324 108.235C4.64181 107.939 4.62109 107.638 4.62109 107.331C4.62109 106.286 4.92294 105.229 5.52663 104.161C6.18951 103.013 6.81688 102.32 7.40874 102.081C7.70466 101.956 8.11009 101.837 8.625 101.723C9.13991 101.61 9.55717 101.553 9.87678 101.553C10.0425 101.553 10.1668 101.57 10.2496 101.604C10.4627 101.672 10.7764 102.104 11.1907 102.899C11.3209 103.115 11.4985 103.422 11.7234 103.82C11.9483 104.218 12.1554 104.578 12.3448 104.902C12.5342 105.226 12.7177 105.53 12.8952 105.814C12.9308 105.86 13.0343 106.002 13.206 106.24C13.3776 106.479 13.5049 106.681 13.5877 106.845C13.6706 107.01 13.712 107.172 13.712 107.331C13.712 107.558 13.5433 107.843 13.206 108.183C12.8686 108.524 12.5017 108.837 12.1051 109.121C11.7086 109.405 11.3416 109.706 11.0043 110.024C10.6669 110.343 10.4982 110.604 10.4982 110.808C10.4982 110.911 10.5278 111.039 10.587 111.192C10.6462 111.345 10.6965 111.462 10.7379 111.541C10.7794 111.621 10.8622 111.757 10.9865 111.95C11.1108 112.144 11.1789 112.252 11.1907 112.274C12.0903 113.831 13.1201 115.166 14.2802 116.28C15.4402 117.394 16.8311 118.382 18.4528 119.246C18.4764 119.257 18.5889 119.323 18.7901 119.442C18.9914 119.561 19.1334 119.641 19.2163 119.681C19.2991 119.72 19.4205 119.769 19.5803 119.825C19.7401 119.882 19.8732 119.911 19.9798 119.911C20.1928 119.911 20.4651 119.749 20.7965 119.425C21.128 119.101 21.4416 118.749 21.7376 118.368C22.0335 117.987 22.359 117.635 22.7141 117.311C23.0692 116.987 23.3652 116.825 23.6019 116.825C23.7676 116.825 23.9363 116.865 24.108 116.945C24.2796 117.024 24.4897 117.146 24.7383 117.311C24.9869 117.476 25.1348 117.575 25.1822 117.61C25.4781 117.78 25.7947 117.956 26.1321 118.138C26.4695 118.32 26.8453 118.519 27.2596 118.735C27.6739 118.95 27.9935 119.121 28.2184 119.246C29.047 119.644 29.4968 119.945 29.5678 120.149C29.6033 120.229 29.6211 120.348 29.6211 120.507Z" fill="#F87B36"/>
</g>
<defs>
<clipPath id="clip0_149_218">
<rect width="38" height="128" fill="white" transform="matrix(1 0 0 -1 4.61914 128.41)"/>
</clipPath>
</defs>
</svg>
